<?xml version="1.0" encoding="utf-8" standalone="no"?>
<!DOCTYPE svg PUBLIC "-//W3C//DTD SVG 1.1//EN"
  "http://www.w3.org/Graphics/SVG/1.1/DTD/svg11.dtd">
<!-- Created with matplotlib (https://matplotlib.org/) -->
<svg height="396pt" version="1.1" viewBox="0 0 576 396" width="576pt" xmlns="http://www.w3.org/2000/svg" xmlns:xlink="http://www.w3.org/1999/xlink">
 <metadata>
  <rdf:RDF xmlns:cc="http://creativecommons.org/ns#" xmlns:dc="http://purl.org/dc/elements/1.1/" xmlns:rdf="http://www.w3.org/1999/02/22-rdf-syntax-ns#">
   <cc:Work>
    <dc:type rdf:resource="http://purl.org/dc/dcmitype/StillImage"/>
    <dc:date>2020-11-20T13:54:18.778191</dc:date>
    <dc:format>image/svg+xml</dc:format>
    <dc:creator>
     <cc:Agent>
      <dc:title>Matplotlib v3.3.0, https://matplotlib.org/</dc:title>
     </cc:Agent>
    </dc:creator>
   </cc:Work>
  </rdf:RDF>
 </metadata>
 <defs>
  <style type="text/css">*{stroke-linecap:butt;stroke-linejoin:round;}</style>
 </defs>
 <g id="figure_1">
  <g id="patch_1">
   <path d="M 0 396 
L 576 396 
L 576 0 
L 0 0 
z
" style="fill:#ffffff;"/>
  </g>
  <g id="axes_1">
   <g id="patch_2">
    <path d="M 72 352.44 
L 518.4 352.44 
L 518.4 47.52 
L 72 47.52 
z
" style="fill:#ffffff;"/>
   </g>
   <g id="matplotlib.axis_1">
    <g id="xtick_1">
     <g id="line2d_1">
      <defs>
       <path d="M 0 0 
L 0 3.5 
" id="mc1d2a3e4ee" style="stroke:#000000;"/>
      </defs>
      <g>
       <use style="stroke:#000000;" x="129.183471" xlink:href="#mc1d2a3e4ee" y="352.44"/>
      </g>
     </g>
     <g id="text_1">
      <!-- −25 -->
      <g transform="translate(118.631127 370.538437)scale(0.1 -0.1)">
       <defs>
        <path d="M 10.59375 35.5 
L 73.1875 35.5 
L 73.1875 27.203125 
L 10.59375 27.203125 
z
" id="DejaVuSans-8722"/>
        <path d="M 19.1875 8.296875 
L 53.609375 8.296875 
L 53.609375 0 
L 7.328125 0 
L 7.328125 8.296875 
Q 12.9375 14.109375 22.625 23.890625 
Q 32.328125 33.6875 34.8125 36.53125 
Q 39.546875 41.84375 41.421875 45.53125 
Q 43.3125 49.21875 43.3125 52.78125 
Q 43.3125 58.59375 39.234375 62.25 
Q 35.15625 65.921875 28.609375 65.921875 
Q 23.96875 65.921875 18.8125 64.3125 
Q 13.671875 62.703125 7.8125 59.421875 
L 7.8125 69.390625 
Q 13.765625 71.78125 18.9375 73 
Q 24.125 74.21875 28.421875 74.21875 
Q 39.75 74.21875 46.484375 68.546875 
Q 53.21875 62.890625 53.21875 53.421875 
Q 53.21875 48.921875 51.53125 44.890625 
Q 49.859375 40.875 45.40625 35.40625 
Q 44.1875 33.984375 37.640625 27.21875 
Q 31.109375 20.453125 19.1875 8.296875 
z
" id="DejaVuSans-50"/>
        <path d="M 10.796875 72.90625 
L 49.515625 72.90625 
L 49.515625 64.59375 
L 19.828125 64.59375 
L 19.828125 46.734375 
Q 21.96875 47.46875 24.109375 47.828125 
Q 26.265625 48.1875 28.421875 48.1875 
Q 40.625 48.1875 47.75 41.5 
Q 54.890625 34.8125 54.890625 23.390625 
Q 54.890625 11.625 47.5625 5.09375 
Q 40.234375 -1.421875 26.90625 -1.421875 
Q 22.3125 -1.421875 17.546875 -0.640625 
Q 12.796875 0.140625 7.71875 1.703125 
L 7.71875 11.625 
Q 12.109375 9.234375 16.796875 8.0625 
Q 21.484375 6.890625 26.703125 6.890625 
Q 35.15625 6.890625 40.078125 11.328125 
Q 45.015625 15.765625 45.015625 23.390625 
Q 45.015625 31 40.078125 35.4375 
Q 35.15625 39.890625 26.703125 39.890625 
Q 22.75 39.890625 18.8125 39.015625 
Q 14.890625 38.140625 10.796875 36.28125 
z
" id="DejaVuSans-53"/>
       </defs>
       <use xlink:href="#DejaVuSans-8722"/>
       <use x="83.789062" xlink:href="#DejaVuSans-50"/>
       <use x="147.412109" xlink:href="#DejaVuSans-53"/>
      </g>
     </g>
    </g>
    <g id="xtick_2">
     <g id="line2d_2">
      <g>
       <use style="stroke:#000000;" x="190.671074" xlink:href="#mc1d2a3e4ee" y="352.44"/>
      </g>
     </g>
     <g id="text_2">
      <!-- 0 -->
      <g transform="translate(187.489824 370.538437)scale(0.1 -0.1)">
       <defs>
        <path d="M 31.78125 66.40625 
Q 24.171875 66.40625 20.328125 58.90625 
Q 16.5 51.421875 16.5 36.375 
Q 16.5 21.390625 20.328125 13.890625 
Q 24.171875 6.390625 31.78125 6.390625 
Q 39.453125 6.390625 43.28125 13.890625 
Q 47.125 21.390625 47.125 36.375 
Q 47.125 51.421875 43.28125 58.90625 
Q 39.453125 66.40625 31.78125 66.40625 
z
M 31.78125 74.21875 
Q 44.046875 74.21875 50.515625 64.515625 
Q 56.984375 54.828125 56.984375 36.375 
Q 56.984375 17.96875 50.515625 8.265625 
Q 44.046875 -1.421875 31.78125 -1.421875 
Q 19.53125 -1.421875 13.0625 8.265625 
Q 6.59375 17.96875 6.59375 36.375 
Q 6.59375 54.828125 13.0625 64.515625 
Q 19.53125 74.21875 31.78125 74.21875 
z
" id="DejaVuSans-48"/>
       </defs>
       <use xlink:href="#DejaVuSans-48"/>
      </g>
     </g>
    </g>
    <g id="xtick_3">
     <g id="line2d_3">
      <g>
       <use style="stroke:#000000;" x="252.158678" xlink:href="#mc1d2a3e4ee" y="352.44"/>
      </g>
     </g>
     <g id="text_3">
      <!-- 25 -->
      <g transform="translate(245.796178 370.538437)scale(0.1 -0.1)">
       <use xlink:href="#DejaVuSans-50"/>
       <use x="63.623047" xlink:href="#DejaVuSans-53"/>
      </g>
     </g>
    </g>
    <g id="xtick_4">
     <g id="line2d_4">
      <g>
       <use style="stroke:#000000;" x="313.646281" xlink:href="#mc1d2a3e4ee" y="352.44"/>
      </g>
     </g>
     <g id="text_4">
      <!-- 50 -->
      <g transform="translate(307.283781 370.538437)scale(0.1 -0.1)">
       <use xlink:href="#DejaVuSans-53"/>
       <use x="63.623047" xlink:href="#DejaVuSans-48"/>
      </g>
     </g>
    </g>
    <g id="xtick_5">
     <g id="line2d_5">
      <g>
       <use style="stroke:#000000;" x="375.133884" xlink:href="#mc1d2a3e4ee" y="352.44"/>
      </g>
     </g>
     <g id="text_5">
      <!-- 75 -->
      <g transform="translate(368.771384 370.538437)scale(0.1 -0.1)">
       <defs>
        <path d="M 8.203125 72.90625 
L 55.078125 72.90625 
L 55.078125 68.703125 
L 28.609375 0 
L 18.3125 0 
L 43.21875 64.59375 
L 8.203125 64.59375 
z
" id="DejaVuSans-55"/>
       </defs>
       <use xlink:href="#DejaVuSans-55"/>
       <use x="63.623047" xlink:href="#DejaVuSans-53"/>
      </g>
     </g>
    </g>
    <g id="xtick_6">
     <g id="line2d_6">
      <g>
       <use style="stroke:#000000;" x="436.621488" xlink:href="#mc1d2a3e4ee" y="352.44"/>
      </g>
     </g>
     <g id="text_6">
      <!-- 100 -->
      <g transform="translate(427.077738 370.538437)scale(0.1 -0.1)">
       <defs>
        <path d="M 12.40625 8.296875 
L 28.515625 8.296875 
L 28.515625 63.921875 
L 10.984375 60.40625 
L 10.984375 69.390625 
L 28.421875 72.90625 
L 38.28125 72.90625 
L 38.28125 8.296875 
L 54.390625 8.296875 
L 54.390625 0 
L 12.40625 0 
z
" id="DejaVuSans-49"/>
       </defs>
       <use xlink:href="#DejaVuSans-49"/>
       <use x="63.623047" xlink:href="#DejaVuSans-48"/>
       <use x="127.246094" xlink:href="#DejaVuSans-48"/>
      </g>
     </g>
    </g>
    <g id="xtick_7">
     <g id="line2d_7">
      <g>
       <use style="stroke:#000000;" x="498.109091" xlink:href="#mc1d2a3e4ee" y="352.44"/>
      </g>
     </g>
     <g id="text_7">
      <!-- 125 -->
      <g transform="translate(488.565341 370.538437)scale(0.1 -0.1)">
       <use xlink:href="#DejaVuSans-49"/>
       <use x="63.623047" xlink:href="#DejaVuSans-50"/>
       <use x="127.246094" xlink:href="#DejaVuSans-53"/>
      </g>
     </g>
    </g>
   </g>
   <g id="matplotlib.axis_2">
    <g id="ytick_1">
     <g id="line2d_8">
      <defs>
       <path d="M 0 0 
L -3.5 0 
" id="m001b4eed4c" style="stroke:#000000;"/>
      </defs>
      <g>
       <use style="stroke:#000000;" x="72" xlink:href="#m001b4eed4c" y="324.653811"/>
      </g>
     </g>
     <g id="text_8">
      <!-- 4.4 -->
      <g transform="translate(45.596875 328.45303)scale(0.1 -0.1)">
       <defs>
        <path d="M 37.796875 64.3125 
L 12.890625 25.390625 
L 37.796875 25.390625 
z
M 35.203125 72.90625 
L 47.609375 72.90625 
L 47.609375 25.390625 
L 58.015625 25.390625 
L 58.015625 17.1875 
L 47.609375 17.1875 
L 47.609375 0 
L 37.796875 0 
L 37.796875 17.1875 
L 4.890625 17.1875 
L 4.890625 26.703125 
z
" id="DejaVuSans-52"/>
        <path d="M 10.6875 12.40625 
L 21 12.40625 
L 21 0 
L 10.6875 0 
z
" id="DejaVuSans-46"/>
       </defs>
       <use xlink:href="#DejaVuSans-52"/>
       <use x="63.623047" xlink:href="#DejaVuSans-46"/>
       <use x="95.410156" xlink:href="#DejaVuSans-52"/>
      </g>
     </g>
    </g>
    <g id="ytick_2">
     <g id="line2d_9">
      <g>
       <use style="stroke:#000000;" x="72" xlink:href="#m001b4eed4c" y="290.465758"/>
      </g>
     </g>
     <g id="text_9">
      <!-- 4.6 -->
      <g transform="translate(45.596875 294.264977)scale(0.1 -0.1)">
       <defs>
        <path d="M 33.015625 40.375 
Q 26.375 40.375 22.484375 35.828125 
Q 18.609375 31.296875 18.609375 23.390625 
Q 18.609375 15.53125 22.484375 10.953125 
Q 26.375 6.390625 33.015625 6.390625 
Q 39.65625 6.390625 43.53125 10.953125 
Q 47.40625 15.53125 47.40625 23.390625 
Q 47.40625 31.296875 43.53125 35.828125 
Q 39.65625 40.375 33.015625 40.375 
z
M 52.59375 71.296875 
L 52.59375 62.3125 
Q 48.875 64.0625 45.09375 64.984375 
Q 41.3125 65.921875 37.59375 65.921875 
Q 27.828125 65.921875 22.671875 59.328125 
Q 17.53125 52.734375 16.796875 39.40625 
Q 19.671875 43.65625 24.015625 45.921875 
Q 28.375 48.1875 33.59375 48.1875 
Q 44.578125 48.1875 50.953125 41.515625 
Q 57.328125 34.859375 57.328125 23.390625 
Q 57.328125 12.15625 50.6875 5.359375 
Q 44.046875 -1.421875 33.015625 -1.421875 
Q 20.359375 -1.421875 13.671875 8.265625 
Q 6.984375 17.96875 6.984375 36.375 
Q 6.984375 53.65625 15.1875 63.9375 
Q 23.390625 74.21875 37.203125 74.21875 
Q 40.921875 74.21875 44.703125 73.484375 
Q 48.484375 72.75 52.59375 71.296875 
z
" id="DejaVuSans-54"/>
       </defs>
       <use xlink:href="#DejaVuSans-52"/>
       <use x="63.623047" xlink:href="#DejaVuSans-46"/>
       <use x="95.410156" xlink:href="#DejaVuSans-54"/>
      </g>
     </g>
    </g>
    <g id="ytick_3">
     <g id="line2d_10">
      <g>
       <use style="stroke:#000000;" x="72" xlink:href="#m001b4eed4c" y="256.277706"/>
      </g>
     </g>
     <g id="text_10">
      <!-- 4.8 -->
      <g transform="translate(45.596875 260.076924)scale(0.1 -0.1)">
       <defs>
        <path d="M 31.78125 34.625 
Q 24.75 34.625 20.71875 30.859375 
Q 16.703125 27.09375 16.703125 20.515625 
Q 16.703125 13.921875 20.71875 10.15625 
Q 24.75 6.390625 31.78125 6.390625 
Q 38.8125 6.390625 42.859375 10.171875 
Q 46.921875 13.96875 46.921875 20.515625 
Q 46.921875 27.09375 42.890625 30.859375 
Q 38.875 34.625 31.78125 34.625 
z
M 21.921875 38.8125 
Q 15.578125 40.375 12.03125 44.71875 
Q 8.5 49.078125 8.5 55.328125 
Q 8.5 64.0625 14.71875 69.140625 
Q 20.953125 74.21875 31.78125 74.21875 
Q 42.671875 74.21875 48.875 69.140625 
Q 55.078125 64.0625 55.078125 55.328125 
Q 55.078125 49.078125 51.53125 44.71875 
Q 48 40.375 41.703125 38.8125 
Q 48.828125 37.15625 52.796875 32.3125 
Q 56.78125 27.484375 56.78125 20.515625 
Q 56.78125 9.90625 50.3125 4.234375 
Q 43.84375 -1.421875 31.78125 -1.421875 
Q 19.734375 -1.421875 13.25 4.234375 
Q 6.78125 9.90625 6.78125 20.515625 
Q 6.78125 27.484375 10.78125 32.3125 
Q 14.796875 37.15625 21.921875 38.8125 
z
M 18.3125 54.390625 
Q 18.3125 48.734375 21.84375 45.5625 
Q 25.390625 42.390625 31.78125 42.390625 
Q 38.140625 42.390625 41.71875 45.5625 
Q 45.3125 48.734375 45.3125 54.390625 
Q 45.3125 60.0625 41.71875 63.234375 
Q 38.140625 66.40625 31.78125 66.40625 
Q 25.390625 66.40625 21.84375 63.234375 
Q 18.3125 60.0625 18.3125 54.390625 
z
" id="DejaVuSans-56"/>
       </defs>
       <use xlink:href="#DejaVuSans-52"/>
       <use x="63.623047" xlink:href="#DejaVuSans-46"/>
       <use x="95.410156" xlink:href="#DejaVuSans-56"/>
      </g>
     </g>
    </g>
    <g id="ytick_4">
     <g id="line2d_11">
      <g>
       <use style="stroke:#000000;" x="72" xlink:href="#m001b4eed4c" y="222.089653"/>
      </g>
     </g>
     <g id="text_11">
      <!-- 5.0 -->
      <g transform="translate(45.596875 225.888872)scale(0.1 -0.1)">
       <use xlink:href="#DejaVuSans-53"/>
       <use x="63.623047" xlink:href="#DejaVuSans-46"/>
       <use x="95.410156" xlink:href="#DejaVuSans-48"/>
      </g>
     </g>
    </g>
    <g id="ytick_5">
     <g id="line2d_12">
      <g>
       <use style="stroke:#000000;" x="72" xlink:href="#m001b4eed4c" y="187.9016"/>
      </g>
     </g>
     <g id="text_12">
      <!-- 5.2 -->
      <g transform="translate(45.596875 191.700819)scale(0.1 -0.1)">
       <use xlink:href="#DejaVuSans-53"/>
       <use x="63.623047" xlink:href="#DejaVuSans-46"/>
       <use x="95.410156" xlink:href="#DejaVuSans-50"/>
      </g>
     </g>
    </g>
    <g id="ytick_6">
     <g id="line2d_13">
      <g>
       <use style="stroke:#000000;" x="72" xlink:href="#m001b4eed4c" y="153.713547"/>
      </g>
     </g>
     <g id="text_13">
      <!-- 5.4 -->
      <g transform="translate(45.596875 157.512766)scale(0.1 -0.1)">
       <use xlink:href="#DejaVuSans-53"/>
       <use x="63.623047" xlink:href="#DejaVuSans-46"/>
       <use x="95.410156" xlink:href="#DejaVuSans-52"/>
      </g>
     </g>
    </g>
    <g id="ytick_7">
     <g id="line2d_14">
      <g>
       <use style="stroke:#000000;" x="72" xlink:href="#m001b4eed4c" y="119.525494"/>
      </g>
     </g>
     <g id="text_14">
      <!-- 5.6 -->
      <g transform="translate(45.596875 123.324713)scale(0.1 -0.1)">
       <use xlink:href="#DejaVuSans-53"/>
       <use x="63.623047" xlink:href="#DejaVuSans-46"/>
       <use x="95.410156" xlink:href="#DejaVuSans-54"/>
      </g>
     </g>
    </g>
    <g id="ytick_8">
     <g id="line2d_15">
      <g>
       <use style="stroke:#000000;" x="72" xlink:href="#m001b4eed4c" y="85.337441"/>
      </g>
     </g>
     <g id="text_15">
      <!-- 5.8 -->
      <g transform="translate(45.596875 89.13666)scale(0.1 -0.1)">
       <use xlink:href="#DejaVuSans-53"/>
       <use x="63.623047" xlink:href="#DejaVuSans-46"/>
       <use x="95.410156" xlink:href="#DejaVuSans-56"/>
      </g>
     </g>
    </g>
    <g id="ytick_9">
     <g id="line2d_16">
      <g>
       <use style="stroke:#000000;" x="72" xlink:href="#m001b4eed4c" y="51.149389"/>
      </g>
     </g>
     <g id="text_16">
      <!-- 6.0 -->
      <g transform="translate(45.596875 54.948607)scale(0.1 -0.1)">
       <use xlink:href="#DejaVuSans-54"/>
       <use x="63.623047" xlink:href="#DejaVuSans-46"/>
       <use x="95.410156" xlink:href="#DejaVuSans-48"/>
      </g>
     </g>
    </g>
    <g id="text_17">
     <!-- 1e−6 -->
     <g transform="translate(72 44.52)scale(0.1 -0.1)">
      <defs>
       <path d="M 56.203125 29.59375 
L 56.203125 25.203125 
L 14.890625 25.203125 
Q 15.484375 15.921875 20.484375 11.0625 
Q 25.484375 6.203125 34.421875 6.203125 
Q 39.59375 6.203125 44.453125 7.46875 
Q 49.3125 8.734375 54.109375 11.28125 
L 54.109375 2.78125 
Q 49.265625 0.734375 44.1875 -0.34375 
Q 39.109375 -1.421875 33.890625 -1.421875 
Q 20.796875 -1.421875 13.15625 6.1875 
Q 5.515625 13.8125 5.515625 26.8125 
Q 5.515625 40.234375 12.765625 48.109375 
Q 20.015625 56 32.328125 56 
Q 43.359375 56 49.78125 48.890625 
Q 56.203125 41.796875 56.203125 29.59375 
z
M 47.21875 32.234375 
Q 47.125 39.59375 43.09375 43.984375 
Q 39.0625 48.390625 32.421875 48.390625 
Q 24.90625 48.390625 20.390625 44.140625 
Q 15.875 39.890625 15.1875 32.171875 
z
" id="DejaVuSans-101"/>
      </defs>
      <use xlink:href="#DejaVuSans-49"/>
      <use x="63.623047" xlink:href="#DejaVuSans-101"/>
      <use x="125.146484" xlink:href="#DejaVuSans-8722"/>
      <use x="208.935547" xlink:href="#DejaVuSans-54"/>
     </g>
    </g>
   </g>
   <g id="line2d_17">
    <path clip-path="url(#p0fa4c833a4)" d="M 92.290909 226.503084 
L 94.750413 226.443427 
L 99.669421 226.151496 
L 126.723967 224.995044 
L 156.238017 223.955282 
L 188.21157 223.064824 
L 220.185124 222.397024 
L 254.618182 221.903845 
L 291.510744 221.611557 
L 328.403306 221.54113 
L 367.755372 221.688591 
L 409.566942 222.075268 
L 453.838017 222.720331 
L 498.109091 223.582659 
L 498.109091 223.582659 
" style="fill:none;stroke:#0000ff;stroke-linecap:square;stroke-opacity:0.5;"/>
   </g>
   <g id="line2d_18">
    <path clip-path="url(#p0fa4c833a4)" d="M 92.290909 221.630561 
L 94.750413 221.617076 
L 99.669421 221.413595 
L 134.102479 220.530401 
L 170.995041 219.811491 
L 207.887603 219.31263 
L 247.239669 219.007244 
L 286.591736 218.920238 
L 328.403306 219.050211 
L 372.67438 219.419492 
L 416.945455 220.009058 
L 463.676033 220.848769 
L 498.109091 221.591274 
L 498.109091 221.591274 
" style="fill:none;stroke:#0000ff;stroke-linecap:square;stroke-opacity:0.5;"/>
   </g>
   <g id="line2d_19">
    <path clip-path="url(#p0fa4c833a4)" d="M 92.290909 218.690799 
L 94.750413 218.695735 
L 99.669421 218.527993 
L 136.561983 217.834181 
L 175.91405 217.309805 
L 217.72562 216.984673 
L 259.53719 216.886239 
L 303.808264 217.014961 
L 348.079339 217.368335 
L 394.809917 217.968529 
L 444 218.831756 
L 498.109091 220.01538 
L 498.109091 220.01538 
" style="fill:none;stroke:#0000ff;stroke-linecap:square;stroke-opacity:0.5;"/>
   </g>
   <g id="line2d_20">
    <path clip-path="url(#p0fa4c833a4)" d="M 92.290909 227.559013 
L 94.750413 227.466005 
L 99.669421 227.113677 
L 121.804959 225.926891 
L 146.4 224.828768 
L 173.454545 223.842739 
L 202.968595 222.994326 
L 234.942149 222.308509 
L 269.375207 221.808028 
L 306.267769 221.512342 
L 345.619835 221.436957 
L 387.431405 221.591848 
L 431.702479 221.978022 
L 485.81157 222.685468 
L 498.109091 222.870555 
L 498.109091 222.870555 
" style="fill:none;stroke:#0000ff;stroke-linecap:square;stroke-opacity:0.5;"/>
   </g>
   <g id="line2d_21">
    <path clip-path="url(#p0fa4c833a4)" d="M 92.290909 221.416153 
L 94.750413 221.398805 
L 99.669421 221.188077 
L 134.102479 220.25906 
L 170.995041 219.499194 
L 207.887603 218.964209 
L 247.239669 218.621594 
L 289.05124 218.493016 
L 330.86281 218.583311 
L 377.593388 218.912851 
L 429.242975 219.511583 
L 498.109091 220.558945 
L 498.109091 220.558945 
" style="fill:none;stroke:#0000ff;stroke-linecap:square;stroke-opacity:0.5;"/>
   </g>
   <g id="line2d_22">
    <path clip-path="url(#p0fa4c833a4)" d="M 92.290909 218.106367 
L 94.750413 218.110781 
L 99.669421 217.942342 
L 139.021488 217.20181 
L 178.373554 216.681458 
L 220.185124 216.356201 
L 261.996694 216.250387 
L 306.267769 216.358729 
L 352.998347 216.69443 
L 404.647934 217.291371 
L 471.054545 218.305047 
L 498.109091 218.748353 
L 498.109091 218.748353 
" style="fill:none;stroke:#0000ff;stroke-linecap:square;stroke-opacity:0.5;"/>
   </g>
   <g id="line2d_23">
    <path clip-path="url(#p0fa4c833a4)" d="M 92.290909 227.450613 
L 94.750413 227.42802 
L 99.669421 227.206528 
L 131.642975 226.287637 
L 163.616529 225.582894 
L 198.049587 225.045643 
L 232.482645 224.723124 
L 269.375207 224.600974 
L 306.267769 224.69666 
L 345.619835 225.026529 
L 384.971901 225.582441 
L 424.323967 226.359507 
L 463.676033 227.357719 
L 498.109091 228.416683 
L 498.109091 228.416683 
" style="fill:none;stroke:#0000ff;stroke-linecap:square;stroke-opacity:0.5;"/>
   </g>
   <g id="line2d_24">
    <path clip-path="url(#p0fa4c833a4)" d="M 92.290909 223.369875 
L 94.750413 223.37778 
L 99.669421 223.214805 
L 136.561983 222.571444 
L 173.454545 222.141787 
L 212.806612 221.907576 
L 252.158678 221.895065 
L 291.510744 222.095497 
L 333.322314 222.533466 
L 375.133884 223.196649 
L 416.945455 224.081265 
L 458.757025 225.186541 
L 498.109091 226.428894 
L 498.109091 226.428894 
" style="fill:none;stroke:#0000ff;stroke-linecap:square;stroke-opacity:0.5;"/>
   </g>
   <g id="line2d_25">
    <path clip-path="url(#p0fa4c833a4)" d="M 92.290909 220.445982 
L 94.750413 220.470135 
L 99.669421 220.338527 
L 139.021488 219.889497 
L 180.833058 219.638448 
L 222.644628 219.613404 
L 264.456198 219.808584 
L 306.267769 220.218491 
L 350.538843 220.88099 
L 394.809917 221.774073 
L 439.080992 222.895144 
L 483.352066 224.241569 
L 498.109091 224.739209 
L 498.109091 224.739209 
" style="fill:none;stroke:#0000ff;stroke-linecap:square;stroke-opacity:0.5;"/>
   </g>
   <g id="line2d_26">
    <path clip-path="url(#p0fa4c833a4)" d="M 92.290909 227.960443 
L 97.209917 227.573722 
L 119.345455 225.975489 
L 141.480992 224.595013 
L 166.076033 223.283391 
L 193.130579 222.078588 
L 220.185124 221.093813 
L 249.699174 220.241203 
L 281.672727 219.548092 
L 316.105785 219.037907 
L 352.998347 218.730537 
L 389.890909 218.641507 
L 429.242975 218.759252 
L 473.51405 219.121053 
L 498.109091 219.413092 
L 498.109091 219.413092 
" style="fill:none;stroke:#0000ff;stroke-linecap:square;stroke-opacity:0.5;"/>
   </g>
   <g id="line2d_27">
    <path clip-path="url(#p0fa4c833a4)" d="M 92.290909 220.748638 
L 94.750413 220.705927 
L 99.669421 220.448134 
L 131.642975 219.276647 
L 166.076033 218.241508 
L 200.509091 217.423492 
L 237.401653 216.769164 
L 276.753719 216.303432 
L 316.105785 216.056558 
L 357.917355 216.012401 
L 402.18843 216.18724 
L 448.919008 216.591245 
L 498.109091 217.21709 
L 498.109091 217.21709 
" style="fill:none;stroke:#0000ff;stroke-linecap:square;stroke-opacity:0.5;"/>
   </g>
   <g id="line2d_28">
    <path clip-path="url(#p0fa4c833a4)" d="M 92.290909 217.708123 
L 94.750413 217.687006 
L 99.669421 217.471323 
L 136.561983 216.423287 
L 173.454545 215.594138 
L 212.806612 214.935509 
L 252.158678 214.494324 
L 293.970248 214.246253 
L 338.241322 214.21152 
L 384.971901 214.406594 
L 434.161983 214.841389 
L 490.730579 215.57985 
L 498.109091 215.689935 
L 498.109091 215.689935 
" style="fill:none;stroke:#0000ff;stroke-linecap:square;stroke-opacity:0.5;"/>
   </g>
   <g id="line2d_29">
    <path clip-path="url(#p0fa4c833a4)" d="M 92.290909 225.951115 
L 94.750413 225.907621 
L 99.669421 225.64701 
L 129.183471 224.567672 
L 161.157025 223.632794 
L 193.130579 222.922836 
L 227.563636 222.392221 
L 261.996694 222.089447 
L 296.429752 222.003061 
L 330.86281 222.125639 
L 367.755372 222.486287 
L 402.18843 223.0414 
L 436.621488 223.821048 
L 468.595041 224.768543 
L 498.109091 225.866159 
L 498.109091 225.866159 
" style="fill:none;stroke:#0000ff;stroke-linecap:square;stroke-opacity:0.5;"/>
   </g>
   <g id="line2d_30">
    <path clip-path="url(#p0fa4c833a4)" d="M 92.290909 221.785139 
L 94.750413 221.777408 
L 99.669421 221.585683 
L 134.102479 220.784612 
L 170.995041 220.15476 
L 207.887603 219.748421 
L 244.780165 219.556193 
L 284.132231 219.579755 
L 323.484298 219.835348 
L 362.836364 220.324482 
L 399.728926 221.003534 
L 434.161983 221.845339 
L 468.595041 222.913256 
L 498.109091 224.039352 
L 498.109091 224.039352 
" style="fill:none;stroke:#0000ff;stroke-linecap:square;stroke-opacity:0.5;"/>
   </g>
   <g id="line2d_31">
    <path clip-path="url(#p0fa4c833a4)" d="M 92.290909 219.168392 
L 94.750413 219.176784 
L 99.669421 219.016305 
L 136.561983 218.380102 
L 175.91405 217.924744 
L 215.266116 217.691089 
L 254.618182 217.673574 
L 293.970248 217.869267 
L 333.322314 218.278561 
L 372.67438 218.907108 
L 409.566942 219.707471 
L 446.459504 220.733294 
L 478.433058 221.831129 
L 498.109091 222.618752 
L 498.109091 222.618752 
" style="fill:none;stroke:#0000ff;stroke-linecap:square;stroke-opacity:0.5;"/>
   </g>
   <g id="line2d_32">
    <path clip-path="url(#p0fa4c833a4)" d="M 92.290909 75.153189 
L 94.750413 75.046256 
L 99.669421 74.62783 
L 124.264463 73.032444 
L 148.859504 71.659938 
L 175.91405 70.382378 
L 202.968595 69.325478 
L 232.482645 68.400613 
L 261.996694 67.691805 
L 293.970248 67.144862 
L 328.403306 66.788669 
L 362.836364 66.651245 
L 399.728926 66.724584 
L 439.080992 67.032094 
L 480.892562 67.594893 
L 498.109091 67.892336 
L 498.109091 67.892336 
" style="fill:none;stroke:#0000ff;stroke-linecap:square;stroke-opacity:0.5;"/>
   </g>
   <g id="line2d_33">
    <path clip-path="url(#p0fa4c833a4)" d="M 92.290909 68.255301 
L 94.750413 68.223062 
L 99.669421 67.947512 
L 131.642975 66.750158 
L 163.616529 65.766088 
L 198.049587 64.92931 
L 232.482645 64.309216 
L 269.375207 63.869221 
L 306.267769 63.645314 
L 345.619835 63.627321 
L 387.431405 63.839177 
L 429.242975 64.269855 
L 475.973554 64.984178 
L 498.109091 65.397674 
L 498.109091 65.397674 
" style="fill:none;stroke:#0000ff;stroke-linecap:square;stroke-opacity:0.5;"/>
   </g>
   <g id="line2d_34">
    <path clip-path="url(#p0fa4c833a4)" d="M 92.290909 64.702283 
L 94.750413 64.693327 
L 99.669421 64.463262 
L 134.102479 63.474663 
L 170.995041 62.640732 
L 207.887603 62.027244 
L 247.239669 61.602586 
L 286.591736 61.401361 
L 328.403306 61.416806 
L 370.214876 61.65236 
L 414.48595 62.123477 
L 461.216529 62.843985 
L 498.109091 63.549621 
L 498.109091 63.549621 
" style="fill:none;stroke:#0000ff;stroke-linecap:square;stroke-opacity:0.5;"/>
   </g>
   <g id="line2d_35">
    <path clip-path="url(#p0fa4c833a4)" d="M 92.290909 338.58 
L 97.209917 338.410444 
L 126.723967 337.50253 
L 158.697521 336.728653 
L 193.130579 336.115598 
L 230.02314 335.689306 
L 266.915702 335.480038 
L 306.267769 335.474629 
L 348.079339 335.693708 
L 392.350413 336.156583 
L 439.080992 336.880953 
L 488.271074 337.877642 
L 498.109091 338.102362 
L 498.109091 338.102362 
" style="fill:none;stroke:#0000ff;stroke-linecap:square;stroke-opacity:0.5;"/>
   </g>
   <g id="line2d_36">
    <path clip-path="url(#p0fa4c833a4)" d="M 92.290909 334.77303 
L 97.209917 334.667552 
L 134.102479 333.988314 
L 173.454545 333.487327 
L 212.806612 333.202013 
L 254.618182 333.120012 
L 298.889256 333.264676 
L 343.160331 333.630646 
L 389.890909 334.239859 
L 439.080992 335.109257 
L 493.190083 336.302482 
L 498.109091 336.421138 
L 498.109091 336.421138 
" style="fill:none;stroke:#0000ff;stroke-linecap:square;stroke-opacity:0.5;"/>
   </g>
   <g id="line2d_37">
    <path clip-path="url(#p0fa4c833a4)" d="M 92.290909 332.245488 
L 97.209917 332.169866 
L 136.561983 331.668203 
L 178.373554 331.347662 
L 222.644628 331.235587 
L 266.915702 331.345929 
L 313.646281 331.690154 
L 360.37686 332.254002 
L 409.566942 333.068968 
L 461.216529 334.147201 
L 498.109091 335.03397 
L 498.109091 335.03397 
" style="fill:none;stroke:#0000ff;stroke-linecap:square;stroke-opacity:0.5;"/>
   </g>
   <g id="line2d_38">
    <path clip-path="url(#p0fa4c833a4)" d="M 92.290909 338.58 
L 97.209917 338.41044 
L 126.723967 337.502516 
L 158.697521 336.728645 
L 193.130579 336.115613 
L 230.02314 335.689299 
L 266.915702 335.480025 
L 306.267769 335.474617 
L 348.079339 335.693697 
L 392.350413 336.156601 
L 436.621488 336.83716 
L 485.81157 337.822697 
L 498.109091 338.102381 
L 498.109091 338.102381 
" style="fill:none;stroke:#0000ff;stroke-linecap:square;stroke-opacity:0.5;"/>
   </g>
   <g id="line2d_39">
    <path clip-path="url(#p0fa4c833a4)" d="M 92.290909 334.77303 
L 97.209917 334.667552 
L 134.102479 333.988323 
L 173.454545 333.487332 
L 212.806612 333.201988 
L 254.618182 333.119993 
L 298.889256 333.264651 
L 343.160331 333.630645 
L 389.890909 334.239857 
L 439.080992 335.10927 
L 493.190083 336.302481 
L 498.109091 336.42115 
L 498.109091 336.42115 
" style="fill:none;stroke:#0000ff;stroke-linecap:square;stroke-opacity:0.5;"/>
   </g>
   <g id="line2d_40">
    <path clip-path="url(#p0fa4c833a4)" d="M 92.290909 332.245488 
L 97.209917 332.169866 
L 136.561983 331.668211 
L 178.373554 331.347649 
L 222.644628 331.235563 
L 266.915702 331.345941 
L 313.646281 331.690147 
L 360.37686 332.254007 
L 409.566942 333.06897 
L 461.216529 334.147207 
L 498.109091 335.033943 
L 498.109091 335.033943 
" style="fill:none;stroke:#0000ff;stroke-linecap:square;stroke-opacity:0.5;"/>
   </g>
   <g id="line2d_41">
    <path clip-path="url(#p0fa4c833a4)" d="M 92.290909 75.153184 
L 94.750413 75.046272 
L 99.669421 74.627835 
L 124.264463 73.032453 
L 148.859504 71.659934 
L 175.91405 70.382381 
L 202.968595 69.325497 
L 232.482645 68.400603 
L 261.996694 67.691796 
L 293.970248 67.14487 
L 328.403306 66.788653 
L 362.836364 66.651222 
L 399.728926 66.724587 
L 439.080992 67.032102 
L 480.892562 67.594906 
L 498.109091 67.892329 
L 498.109091 67.892329 
" style="fill:none;stroke:#0000ff;stroke-linecap:square;stroke-opacity:0.5;"/>
   </g>
   <g id="line2d_42">
    <path clip-path="url(#p0fa4c833a4)" d="M 92.290909 68.255301 
L 94.750413 68.223053 
L 99.669421 67.947534 
L 131.642975 66.750165 
L 163.616529 65.766063 
L 198.049587 64.929315 
L 232.482645 64.309215 
L 269.375207 63.869218 
L 306.267769 63.645311 
L 345.619835 63.627318 
L 387.431405 63.83916 
L 429.242975 64.269865 
L 473.51405 64.940998 
L 498.109091 65.397661 
L 498.109091 65.397661 
" style="fill:none;stroke:#0000ff;stroke-linecap:square;stroke-opacity:0.5;"/>
   </g>
   <g id="line2d_43">
    <path clip-path="url(#p0fa4c833a4)" d="M 92.290909 64.702285 
L 94.750413 64.693333 
L 99.669421 64.463257 
L 134.102479 63.47465 
L 170.995041 62.640718 
L 207.887603 62.027232 
L 247.239669 61.602576 
L 286.591736 61.401357 
L 328.403306 61.416804 
L 370.214876 61.652355 
L 414.48595 62.123463 
L 461.216529 62.843994 
L 498.109091 63.549626 
L 498.109091 63.549626 
" style="fill:none;stroke:#0000ff;stroke-linecap:square;stroke-opacity:0.5;"/>
   </g>
   <g id="patch_3">
    <path d="M 72 352.44 
L 72 47.52 
" style="fill:none;stroke:#000000;stroke-linecap:square;stroke-linejoin:miter;stroke-width:0.8;"/>
   </g>
   <g id="patch_4">
    <path d="M 518.4 352.44 
L 518.4 47.52 
" style="fill:none;stroke:#000000;stroke-linecap:square;stroke-linejoin:miter;stroke-width:0.8;"/>
   </g>
   <g id="patch_5">
    <path d="M 72 352.44 
L 518.4 352.44 
" style="fill:none;stroke:#000000;stroke-linecap:square;stroke-linejoin:miter;stroke-width:0.8;"/>
   </g>
   <g id="patch_6">
    <path d="M 72 47.52 
L 518.4 47.52 
" style="fill:none;stroke:#000000;stroke-linecap:square;stroke-linejoin:miter;stroke-width:0.8;"/>
   </g>
  </g>
  <g id="text_18">
   <!-- Output Current Over Temperature -->
   <g transform="translate(186.469688 17.038125)scale(0.12 -0.12)">
    <defs>
     <path d="M 39.40625 66.21875 
Q 28.65625 66.21875 22.328125 58.203125 
Q 16.015625 50.203125 16.015625 36.375 
Q 16.015625 22.609375 22.328125 14.59375 
Q 28.65625 6.59375 39.40625 6.59375 
Q 50.140625 6.59375 56.421875 14.59375 
Q 62.703125 22.609375 62.703125 36.375 
Q 62.703125 50.203125 56.421875 58.203125 
Q 50.140625 66.21875 39.40625 66.21875 
z
M 39.40625 74.21875 
Q 54.734375 74.21875 63.90625 63.9375 
Q 73.09375 53.65625 73.09375 36.375 
Q 73.09375 19.140625 63.90625 8.859375 
Q 54.734375 -1.421875 39.40625 -1.421875 
Q 24.03125 -1.421875 14.8125 8.828125 
Q 5.609375 19.09375 5.609375 36.375 
Q 5.609375 53.65625 14.8125 63.9375 
Q 24.03125 74.21875 39.40625 74.21875 
z
" id="DejaVuSans-79"/>
     <path d="M 8.5 21.578125 
L 8.5 54.6875 
L 17.484375 54.6875 
L 17.484375 21.921875 
Q 17.484375 14.15625 20.5 10.265625 
Q 23.53125 6.390625 29.59375 6.390625 
Q 36.859375 6.390625 41.078125 11.03125 
Q 45.3125 15.671875 45.3125 23.6875 
L 45.3125 54.6875 
L 54.296875 54.6875 
L 54.296875 0 
L 45.3125 0 
L 45.3125 8.40625 
Q 42.046875 3.421875 37.71875 1 
Q 33.40625 -1.421875 27.6875 -1.421875 
Q 18.265625 -1.421875 13.375 4.4375 
Q 8.5 10.296875 8.5 21.578125 
z
M 31.109375 56 
z
" id="DejaVuSans-117"/>
     <path d="M 18.3125 70.21875 
L 18.3125 54.6875 
L 36.8125 54.6875 
L 36.8125 47.703125 
L 18.3125 47.703125 
L 18.3125 18.015625 
Q 18.3125 11.328125 20.140625 9.421875 
Q 21.96875 7.515625 27.59375 7.515625 
L 36.8125 7.515625 
L 36.8125 0 
L 27.59375 0 
Q 17.1875 0 13.234375 3.875 
Q 9.28125 7.765625 9.28125 18.015625 
L 9.28125 47.703125 
L 2.6875 47.703125 
L 2.6875 54.6875 
L 9.28125 54.6875 
L 9.28125 70.21875 
z
" id="DejaVuSans-116"/>
     <path d="M 18.109375 8.203125 
L 18.109375 -20.796875 
L 9.078125 -20.796875 
L 9.078125 54.6875 
L 18.109375 54.6875 
L 18.109375 46.390625 
Q 20.953125 51.265625 25.265625 53.625 
Q 29.59375 56 35.59375 56 
Q 45.5625 56 51.78125 48.09375 
Q 58.015625 40.1875 58.015625 27.296875 
Q 58.015625 14.40625 51.78125 6.484375 
Q 45.5625 -1.421875 35.59375 -1.421875 
Q 29.59375 -1.421875 25.265625 0.953125 
Q 20.953125 3.328125 18.109375 8.203125 
z
M 48.6875 27.296875 
Q 48.6875 37.203125 44.609375 42.84375 
Q 40.53125 48.484375 33.40625 48.484375 
Q 26.265625 48.484375 22.1875 42.84375 
Q 18.109375 37.203125 18.109375 27.296875 
Q 18.109375 17.390625 22.1875 11.75 
Q 26.265625 6.109375 33.40625 6.109375 
Q 40.53125 6.109375 44.609375 11.75 
Q 48.6875 17.390625 48.6875 27.296875 
z
" id="DejaVuSans-112"/>
     <path id="DejaVuSans-32"/>
     <path d="M 64.40625 67.28125 
L 64.40625 56.890625 
Q 59.421875 61.53125 53.78125 63.8125 
Q 48.140625 66.109375 41.796875 66.109375 
Q 29.296875 66.109375 22.65625 58.46875 
Q 16.015625 50.828125 16.015625 36.375 
Q 16.015625 21.96875 22.65625 14.328125 
Q 29.296875 6.6875 41.796875 6.6875 
Q 48.140625 6.6875 53.78125 8.984375 
Q 59.421875 11.28125 64.40625 15.921875 
L 64.40625 5.609375 
Q 59.234375 2.09375 53.4375 0.328125 
Q 47.65625 -1.421875 41.21875 -1.421875 
Q 24.65625 -1.421875 15.125 8.703125 
Q 5.609375 18.84375 5.609375 36.375 
Q 5.609375 53.953125 15.125 64.078125 
Q 24.65625 74.21875 41.21875 74.21875 
Q 47.75 74.21875 53.53125 72.484375 
Q 59.328125 70.75 64.40625 67.28125 
z
" id="DejaVuSans-67"/>
     <path d="M 41.109375 46.296875 
Q 39.59375 47.171875 37.8125 47.578125 
Q 36.03125 48 33.890625 48 
Q 26.265625 48 22.1875 43.046875 
Q 18.109375 38.09375 18.109375 28.8125 
L 18.109375 0 
L 9.078125 0 
L 9.078125 54.6875 
L 18.109375 54.6875 
L 18.109375 46.1875 
Q 20.953125 51.171875 25.484375 53.578125 
Q 30.03125 56 36.53125 56 
Q 37.453125 56 38.578125 55.875 
Q 39.703125 55.765625 41.0625 55.515625 
z
" id="DejaVuSans-114"/>
     <path d="M 54.890625 33.015625 
L 54.890625 0 
L 45.90625 0 
L 45.90625 32.71875 
Q 45.90625 40.484375 42.875 44.328125 
Q 39.84375 48.1875 33.796875 48.1875 
Q 26.515625 48.1875 22.3125 43.546875 
Q 18.109375 38.921875 18.109375 30.90625 
L 18.109375 0 
L 9.078125 0 
L 9.078125 54.6875 
L 18.109375 54.6875 
L 18.109375 46.1875 
Q 21.34375 51.125 25.703125 53.5625 
Q 30.078125 56 35.796875 56 
Q 45.21875 56 50.046875 50.171875 
Q 54.890625 44.34375 54.890625 33.015625 
z
" id="DejaVuSans-110"/>
     <path d="M 2.984375 54.6875 
L 12.5 54.6875 
L 29.59375 8.796875 
L 46.6875 54.6875 
L 56.203125 54.6875 
L 35.6875 0 
L 23.484375 0 
z
" id="DejaVuSans-118"/>
     <path d="M -0.296875 72.90625 
L 61.375 72.90625 
L 61.375 64.59375 
L 35.5 64.59375 
L 35.5 0 
L 25.59375 0 
L 25.59375 64.59375 
L -0.296875 64.59375 
z
" id="DejaVuSans-84"/>
     <path d="M 52 44.1875 
Q 55.375 50.25 60.0625 53.125 
Q 64.75 56 71.09375 56 
Q 79.640625 56 84.28125 50.015625 
Q 88.921875 44.046875 88.921875 33.015625 
L 88.921875 0 
L 79.890625 0 
L 79.890625 32.71875 
Q 79.890625 40.578125 77.09375 44.375 
Q 74.3125 48.1875 68.609375 48.1875 
Q 61.625 48.1875 57.5625 43.546875 
Q 53.515625 38.921875 53.515625 30.90625 
L 53.515625 0 
L 44.484375 0 
L 44.484375 32.71875 
Q 44.484375 40.625 41.703125 44.40625 
Q 38.921875 48.1875 33.109375 48.1875 
Q 26.21875 48.1875 22.15625 43.53125 
Q 18.109375 38.875 18.109375 30.90625 
L 18.109375 0 
L 9.078125 0 
L 9.078125 54.6875 
L 18.109375 54.6875 
L 18.109375 46.1875 
Q 21.1875 51.21875 25.484375 53.609375 
Q 29.78125 56 35.6875 56 
Q 41.65625 56 45.828125 52.96875 
Q 50 49.953125 52 44.1875 
z
" id="DejaVuSans-109"/>
     <path d="M 34.28125 27.484375 
Q 23.390625 27.484375 19.1875 25 
Q 14.984375 22.515625 14.984375 16.5 
Q 14.984375 11.71875 18.140625 8.90625 
Q 21.296875 6.109375 26.703125 6.109375 
Q 34.1875 6.109375 38.703125 11.40625 
Q 43.21875 16.703125 43.21875 25.484375 
L 43.21875 27.484375 
z
M 52.203125 31.203125 
L 52.203125 0 
L 43.21875 0 
L 43.21875 8.296875 
Q 40.140625 3.328125 35.546875 0.953125 
Q 30.953125 -1.421875 24.3125 -1.421875 
Q 15.921875 -1.421875 10.953125 3.296875 
Q 6 8.015625 6 15.921875 
Q 6 25.140625 12.171875 29.828125 
Q 18.359375 34.515625 30.609375 34.515625 
L 43.21875 34.515625 
L 43.21875 35.40625 
Q 43.21875 41.609375 39.140625 45 
Q 35.0625 48.390625 27.6875 48.390625 
Q 23 48.390625 18.546875 47.265625 
Q 14.109375 46.140625 10.015625 43.890625 
L 10.015625 52.203125 
Q 14.9375 54.109375 19.578125 55.046875 
Q 24.21875 56 28.609375 56 
Q 40.484375 56 46.34375 49.84375 
Q 52.203125 43.703125 52.203125 31.203125 
z
" id="DejaVuSans-97"/>
    </defs>
    <use xlink:href="#DejaVuSans-79"/>
    <use x="78.710938" xlink:href="#DejaVuSans-117"/>
    <use x="142.089844" xlink:href="#DejaVuSans-116"/>
    <use x="181.298828" xlink:href="#DejaVuSans-112"/>
    <use x="244.775391" xlink:href="#DejaVuSans-117"/>
    <use x="308.154297" xlink:href="#DejaVuSans-116"/>
    <use x="347.363281" xlink:href="#DejaVuSans-32"/>
    <use x="379.150391" xlink:href="#DejaVuSans-67"/>
    <use x="448.974609" xlink:href="#DejaVuSans-117"/>
    <use x="512.353516" xlink:href="#DejaVuSans-114"/>
    <use x="551.716797" xlink:href="#DejaVuSans-114"/>
    <use x="590.580078" xlink:href="#DejaVuSans-101"/>
    <use x="652.103516" xlink:href="#DejaVuSans-110"/>
    <use x="715.482422" xlink:href="#DejaVuSans-116"/>
    <use x="754.691406" xlink:href="#DejaVuSans-32"/>
    <use x="786.478516" xlink:href="#DejaVuSans-79"/>
    <use x="865.189453" xlink:href="#DejaVuSans-118"/>
    <use x="924.369141" xlink:href="#DejaVuSans-101"/>
    <use x="985.892578" xlink:href="#DejaVuSans-114"/>
    <use x="1027.005859" xlink:href="#DejaVuSans-32"/>
    <use x="1058.792969" xlink:href="#DejaVuSans-84"/>
    <use x="1102.876953" xlink:href="#DejaVuSans-101"/>
    <use x="1164.400391" xlink:href="#DejaVuSans-109"/>
    <use x="1261.8125" xlink:href="#DejaVuSans-112"/>
    <use x="1325.289062" xlink:href="#DejaVuSans-101"/>
    <use x="1386.8125" xlink:href="#DejaVuSans-114"/>
    <use x="1427.925781" xlink:href="#DejaVuSans-97"/>
    <use x="1489.205078" xlink:href="#DejaVuSans-116"/>
    <use x="1528.414062" xlink:href="#DejaVuSans-117"/>
    <use x="1591.792969" xlink:href="#DejaVuSans-114"/>
    <use x="1630.65625" xlink:href="#DejaVuSans-101"/>
   </g>
  </g>
 </g>
 <defs>
  <clipPath id="p0fa4c833a4">
   <rect height="304.92" width="446.4" x="72" y="47.52"/>
  </clipPath>
 </defs>
</svg>
